<svg width="84" height="74" viewBox="0 0 84 74" fill="none" xmlns="http://www.w3.org/2000/svg">
<path d="M6.96875 53.847C9.40437 53.8538 12.6386 53.9115 13.6665 54.4035C15.5297 55.2956 16.6643 57.1069 16.6644 59.1941C16.6642 62.9378 12.9245 66.4644 10.0763 69.2551C9.49889 69.8209 9.89948 70.7692 10.7079 70.7692H16C16.5098 70.7692 16.923 71.1825 16.9231 71.6923V72.923C16.9231 73.4328 16.5098 73.8461 16 73.8461H4.92307C4.41327 73.8461 4 73.4328 4 72.923V71.14C4.00002 70.9021 4.09202 70.6733 4.25661 70.5015L9.22085 65.3191C10.2546 64.2198 11.0472 63.3469 11.5986 62.7013C12.3624 61.8105 13.1238 60.7945 13.1238 59.5604C13.1237 56.9642 9.38776 57.0702 6.96875 57.1352C6.89756 57.1371 6.82827 57.1303 6.76171 57.1166C6.76633 57.154 6.76922 57.1921 6.76923 57.2307V59.3846C6.76923 59.8944 6.35595 60.3077 5.84615 60.3077H4.30769C3.79789 60.3077 3.38461 59.8944 3.38461 59.3846V57.2307C3.38465 56.721 3.79791 56.3077 4.30769 56.3077H5.84615C5.91682 56.3077 5.98556 56.3161 6.05168 56.3311C6.04803 56.2978 6.04627 56.2639 6.04627 56.2295V54.7692C6.04631 54.2594 6.45897 53.8456 6.96875 53.847Z" fill="#10213D"/>
<path d="M57.6406 53.8458C58.1503 53.8459 58.5636 54.2592 58.5637 54.7689V56.3275C58.5637 56.5479 58.4845 56.7611 58.341 56.9285L55.5997 60.1241C55.1266 60.6756 55.4508 61.5547 56.1157 61.8479C56.2739 61.9177 56.4279 61.9943 56.5775 62.0778C57.4602 62.5703 58.149 63.2478 58.6433 64.1096C59.1376 64.9715 59.3845 65.9831 59.3846 67.1439C59.3846 69.5963 58.0704 71.787 55.9155 72.9486C54.0872 73.9341 51.9982 73.8644 49.9696 73.8293C49.4597 73.8205 49.0462 73.4059 49.0462 72.896V71.4137C49.0462 71.401 49.0466 71.3882 49.0471 71.3756C49.0065 71.381 48.9652 71.3843 48.923 71.3843H46.7692C46.2594 71.3843 45.8461 70.971 45.8461 70.4612V68.9227C45.8462 68.413 46.2595 67.9997 46.7692 67.9997H48.923C49.4328 67.9997 49.846 68.413 49.8461 68.9227V70.4612C49.8461 70.476 49.8456 70.4908 49.8449 70.5054C49.8854 70.5004 49.9267 70.498 49.9687 70.4985C51.4821 70.5163 53.374 70.5341 54.088 70.1784C55.738 69.3564 56.3183 67.0676 55.3329 65.5081C54.5346 64.1165 52.6433 63.718 51.1027 64.0847C50.6013 64.204 50.0395 64.0189 49.817 63.554L49.6643 63.2352C49.5046 62.9015 49.5598 62.5046 49.8044 62.2268L53.1622 58.4131C53.6871 57.8169 53.2637 56.8801 52.4693 56.8801H47.3846C46.8748 56.8801 46.4615 56.4668 46.4615 55.957V54.7689C46.4616 54.2592 46.8748 53.8458 47.3846 53.8458H57.6406Z" fill="#10213D"/>
<path fill-rule="evenodd" clip-rule="evenodd" d="M36 53.832C36.5098 53.832 36.923 54.2453 36.9231 54.7551V56.2935C36.923 56.4015 36.9036 56.5049 36.8696 56.6012H38.1538C38.6636 56.6012 39.0769 57.0145 39.0769 57.5243V70.4474C39.0769 70.9571 38.6636 71.3704 38.1538 71.3704H36.9231V72.9089C36.923 73.4187 36.5098 73.832 36 73.832H27.3846C26.8748 73.832 26.4616 73.4187 26.4615 72.9089V71.3704C26.4615 71.3522 26.462 71.334 26.463 71.3161C26.3662 71.3505 26.2624 71.3704 26.1538 71.3704H24.6154C24.1056 71.3704 23.6923 70.9571 23.6923 70.4474V57.5243C23.6923 57.0145 24.1056 56.6012 24.6154 56.6012H26.1538C26.2972 56.6012 26.4324 56.6349 26.5535 56.6932C26.4952 56.5722 26.4615 56.4369 26.4615 56.2935V54.7551C26.4616 54.2453 26.8748 53.832 27.3846 53.832H36ZM26.985 57.1244C27.0433 57.2454 27.0769 57.3809 27.0769 57.5243V70.4474C27.0769 70.4655 27.0761 70.4836 27.0751 70.5015C27.1719 70.467 27.2759 70.4474 27.3846 70.4474H35.6923V57.5243C35.6923 57.4164 35.7117 57.3129 35.7458 57.2166H27.3846C27.2412 57.2166 27.106 57.1827 26.985 57.1244Z" fill="#10213D"/>
<path fill-rule="evenodd" clip-rule="evenodd" d="M78.4615 53.832C78.9713 53.832 79.3845 54.2453 79.3846 54.7551V56.2935C79.3846 56.4015 79.3652 56.5049 79.3311 56.6012H80.6153C81.1251 56.6012 81.5384 57.0145 81.5384 57.5243V70.4474C81.5384 70.9571 81.1251 71.3704 80.6153 71.3704H79.3846V72.9089C79.3845 73.4187 78.9713 73.832 78.4615 73.832H69.8461C69.3363 73.832 68.9231 73.4187 68.923 72.9089V71.3704C68.923 71.3522 68.9235 71.334 68.9245 71.3161C68.8278 71.3505 68.7239 71.3704 68.6153 71.3704H67.0769C66.5671 71.3704 66.1539 70.9571 66.1538 70.4474V57.5243C66.1539 57.0145 66.5671 56.6012 67.0769 56.6012H68.6153C68.7587 56.6012 68.8939 56.6349 69.015 56.6932C68.9567 56.5722 68.923 56.4369 68.923 56.2935V54.7551C68.9231 54.2453 69.3363 53.832 69.8461 53.832H78.4615ZM69.4465 57.1244C69.5048 57.2454 69.5384 57.3809 69.5384 57.5243V70.4474C69.5384 70.4655 69.5377 70.4836 69.5366 70.5015C69.6334 70.467 69.7374 70.4474 69.8461 70.4474H78.1538V57.5243C78.1538 57.4164 78.1732 57.3129 78.2073 57.2166H69.8461C69.7027 57.2166 69.5675 57.1827 69.4465 57.1244Z" fill="#10213D"/>
<path fill-rule="evenodd" clip-rule="evenodd" d="M17.4477 26.7797C17.9575 26.7797 18.3708 27.193 18.3708 27.7028V33.2317C18.3708 33.7415 17.9575 34.1547 17.4477 34.1547H13.9246C13.397 34.1547 12.9747 34.5961 12.9988 35.1232C13.0133 35.4391 13.0292 35.7691 13.0472 36.0664C13.075 36.5286 13.46 36.8726 13.9231 36.8726H18.8675C19.3773 36.8726 19.7906 37.2858 19.7906 37.7957V38.6274C19.7906 39.1372 19.3773 39.5505 18.8675 39.5505H14.9829C14.3161 39.5505 13.8681 40.2375 14.1947 40.8188C14.719 41.7518 15.3073 42.511 16.2713 43.7914C16.2864 43.8115 16.3201 43.8464 16.3386 43.8633C16.5106 44.0198 16.7464 43.9419 16.8476 43.7325C17.1475 43.1123 17.2825 42.4051 17.3804 41.7001C17.4667 41.0787 18.1227 40.7275 18.6839 41.0081L19.5063 41.4194C19.8789 41.6057 20.0828 42.0189 19.991 42.4252C19.7321 43.5698 19.393 44.6604 18.7885 45.6956C18.3616 46.4265 17.6974 46.9209 16.8302 46.9209C15.0817 46.9209 13.7937 45.1612 13.0024 43.8125C12.0222 42.1415 11.8673 42.0469 11.0379 40.1163C10.8912 39.775 10.5559 39.5505 10.1845 39.5505H6.34345C5.83364 39.5505 5.42037 39.9637 5.42037 40.4735V43.0769C5.42037 43.5867 5.83364 44 6.34345 44H6.76923C6.8778 44 6.98167 44.0196 7.07842 44.0541C7.07741 44.0364 7.07692 44.0185 7.07692 44.0006V42.7686C7.07692 42.2592 7.48999 41.8461 7.99939 41.8461H10.7698C11.2792 41.8461 11.6923 42.2592 11.6923 42.7686V44.0006C11.6923 44.51 11.2792 44.923 10.7698 44.923H7.99939C7.89096 44.923 7.78714 44.9033 7.6905 44.869C7.69153 44.8869 7.6923 44.9049 7.6923 44.923V46.1538C7.6923 46.6636 7.27903 47.0769 6.76923 47.0769H0.923076C0.413275 47.0769 1.98236e-08 46.6636 0 46.1538V44.923C1.98232e-08 44.4132 0.413275 44 0.923076 44H1.77464C2.28444 44 2.69771 43.5867 2.69771 43.0769V27.7028C2.69771 27.193 3.11099 26.7797 3.62079 26.7797H17.4477ZM6.34345 34.1547C5.83364 34.1547 5.42037 34.568 5.42037 35.0778V35.9495C5.42037 36.4593 5.83364 36.8726 6.34345 36.8726H9.33593C9.89116 36.8726 10.3296 36.3848 10.2975 35.8305C10.2818 35.5603 10.2684 35.2822 10.2566 35.0252C10.2341 34.5365 9.8333 34.1548 9.34404 34.1547H6.34345ZM6.34345 29.3681C5.83364 29.3681 5.42037 29.7813 5.42037 30.2911V30.6433C5.42037 31.1531 5.83364 31.5664 6.34345 31.5664H14.7248C15.2346 31.5664 15.6478 31.1531 15.6478 30.6433V30.2911C15.6478 29.7813 15.2346 29.3681 14.7248 29.3681H6.34345Z" fill="#10213D"/>
<path d="M39.3846 30.1538C39.8944 30.1538 40.3077 30.5671 40.3077 31.0769V32.3077C40.3077 32.8175 39.8944 33.2307 39.3846 33.2307H33.8461C33.3363 33.2307 32.9231 33.644 32.9231 34.1538V36C32.9231 36.5098 33.3363 36.9231 33.8461 36.9231H38.4615C38.9713 36.9231 39.3846 37.3363 39.3846 37.8461V39.0769C39.3846 39.5867 38.9713 40 38.4615 40H33.8461C33.3363 40 32.9231 40.4133 32.9231 40.9231V43.0769C32.9231 43.5867 33.3363 44 33.8461 44H39.3846C39.8944 44 40.3077 44.4132 40.3077 44.923V46.1538C40.3077 46.6636 39.8944 47.0769 39.3846 47.0769H23.3846C22.8748 47.0769 22.4615 46.6636 22.4615 46.1538V44.923C22.4615 44.4132 22.8748 44 23.3846 44H28.9231C29.4329 44 29.8461 43.5867 29.8461 43.0769V40.9231C29.8461 40.4133 29.4329 40 28.9231 40H24.6154C24.1056 40 23.6923 39.5867 23.6923 39.0769V37.8461C23.6923 37.3363 24.1056 36.9231 24.6154 36.9231H28.9231C29.4329 36.9231 29.8461 36.5098 29.8461 36V34.1538C29.8461 33.644 29.4329 33.2307 28.9231 33.2307H23.6923C23.1825 33.2307 22.7692 32.8175 22.7692 32.3077V31.0769C22.7692 30.5671 23.1825 30.1538 23.6923 30.1538H39.3846Z" fill="#10213D"/>
<path d="M60.6153 30.1538C61.1252 30.1538 61.5384 30.5671 61.5384 31.0769V32.3077C61.5384 32.8175 61.1252 33.2307 60.6153 33.2307H55.0769C54.5671 33.2307 54.1538 33.644 54.1538 34.1538V36C54.1538 36.5098 54.5671 36.9231 55.0769 36.9231H59.6923C60.2021 36.9231 60.6153 37.3363 60.6153 37.8461V39.0769C60.6153 39.5867 60.2021 40 59.6923 40H55.0769C54.5671 40 54.1538 40.4133 54.1538 40.9231V43.0769C54.1538 43.5867 54.5671 44 55.0769 44H60.6153C61.1252 44 61.5384 44.4132 61.5384 44.923V46.1538C61.5384 46.6636 61.1252 47.0769 60.6153 47.0769H44.6154C44.1056 47.0769 43.6923 46.6636 43.6923 46.1538V44.923C43.6923 44.4132 44.1056 44 44.6154 44H50.1538C50.6636 44 51.0769 43.5867 51.0769 43.0769V40.9231C51.0769 40.4133 50.6636 40 50.1538 40H45.8461C45.3363 40 44.923 39.5867 44.923 39.0769V37.8461C44.923 37.3363 45.3363 36.9231 45.8461 36.9231H50.1538C50.6636 36.9231 51.0769 36.5098 51.0769 36V34.1538C51.0769 33.644 50.6636 33.2307 50.1538 33.2307H44.923C44.4132 33.2307 44 32.8175 44 32.3077V31.0769C44 30.5671 44.4132 30.1538 44.923 30.1538H60.6153Z" fill="#10213D"/>
<path d="M71.0817 26.7692C71.4216 26.7692 71.6971 27.0447 71.6971 27.3846V27.8975C71.6971 28.2374 71.9726 28.5129 72.3125 28.5129H74.1586C74.4985 28.5129 74.774 28.2374 74.774 27.8975V27.3846C74.774 27.0447 75.0495 26.7692 75.3894 26.7692H77.5432C77.8831 26.7692 78.1586 27.0447 78.1586 27.3846V27.8975C78.1586 28.2374 78.4341 28.5129 78.774 28.5129H80.5198C80.8596 28.5129 81.1352 28.7884 81.1352 29.1283V30.021C81.1352 30.3609 80.8596 30.6364 80.5198 30.6364H75.0961C74.848 30.6364 74.6469 30.8375 74.6469 31.0856C74.6469 31.3337 74.848 31.5348 75.0961 31.5348H78.5276C78.8675 31.5348 79.143 31.8104 79.143 32.1502V32.9994C79.143 33.3392 78.8675 33.6148 78.5276 33.6148H75.0961C74.848 33.6148 74.6469 33.8159 74.6469 34.064C74.6469 34.3121 74.848 34.5132 75.0961 34.5132H79.1424C79.4822 34.5132 79.7578 34.7887 79.7578 35.1286V36.1343C79.7578 36.4729 79.4842 36.7478 79.1457 36.7497L76.9804 36.7614C76.8107 36.7624 76.6744 36.9022 76.6787 37.0718C76.6895 37.2817 76.7023 37.3962 76.7172 37.4883C76.7675 37.7987 77.041 38.0342 77.3554 38.0342H81.2737C81.6136 38.0342 81.8891 38.3098 81.8891 38.6496V39.6613C81.8891 40.0012 81.6136 40.2767 81.2737 40.2767H77.8167C77.4233 40.2768 77.1309 40.6415 77.2518 41.0159C77.2996 41.1642 77.3515 41.3111 77.4068 41.457C77.5299 41.7815 77.9079 41.9177 78.2043 41.7371C78.31 41.6726 78.4216 41.6007 78.5294 41.524C78.8514 41.295 79.3549 41.254 79.64 41.5276L80.1571 42.024C80.4327 42.2885 80.4047 42.7391 80.1033 42.9738C79.9395 43.1014 79.7463 43.2539 79.5306 43.4276C79.2355 43.6652 79.2277 44.1147 79.5342 44.3374C79.6142 44.3955 79.6955 44.4519 79.7782 44.506C80.0317 44.6717 80.3637 44.5639 80.4756 44.2824C80.5947 43.9827 80.9359 43.8372 81.2436 43.9339C81.6159 44.0508 82.0043 44.1313 82.3909 44.1995C82.7558 44.2639 82.987 44.6289 82.8461 44.9717C82.7798 45.133 82.7063 45.2964 82.6256 45.4621C82.4328 45.8574 82.2401 46.177 82.0474 46.4209C81.4847 47.2232 80.1761 47.0201 79.4044 46.6986C78.6494 46.3771 77.9658 45.9974 77.3771 45.5598C77.1648 45.402 76.8782 45.3794 76.6487 45.5108C75.7788 46.0086 74.8576 46.4251 73.9155 46.7671C73.6675 46.8572 73.3942 46.7737 73.2554 46.5493C73.0929 46.2866 72.8759 45.9263 72.692 45.6181C72.4964 45.2905 72.6452 44.8666 73.0018 44.731L74.8873 44.0144C75.262 43.872 75.4023 43.4142 75.2094 43.0628C74.8415 42.3927 74.5494 41.6263 74.3332 40.7638C74.2624 40.4814 74.0129 40.2768 73.7217 40.2767H71.0471C70.901 40.2768 70.7825 40.3953 70.7824 40.5414C70.7824 40.7061 70.9312 40.8312 71.0934 40.8026L72.0595 40.6322C72.3942 40.5732 72.7135 40.7966 72.7725 41.1313L72.9855 42.3416C73.0445 42.6763 72.8211 42.9954 72.4864 43.0544L71.2911 43.2653C70.997 43.3171 70.7824 43.5727 70.7824 43.8714L70.7827 46.4615C70.7827 46.8014 70.5072 47.0769 70.1673 47.0769H67.4014C67.0615 47.0769 66.786 46.8014 66.786 46.4615V45.2325C66.786 44.8927 67.0615 44.6172 67.4014 44.6172H67.7674C67.9675 44.6171 68.1297 44.4549 68.1298 44.2548C68.1298 44.0294 67.9262 43.8587 67.7043 43.8978L65.8031 44.2328C65.4684 44.2919 65.1491 44.0685 65.0901 43.7337L64.8771 42.5237C64.8181 42.189 65.0415 41.8697 65.3762 41.8107L67.6586 41.408C67.931 41.36 68.1298 41.1234 68.1298 40.8467C68.1297 40.5319 67.8746 40.2767 67.5598 40.2767H64.6154C64.2755 40.2767 64 40.0012 64 39.6613V38.6496C64 38.3098 64.2755 38.0342 64.6154 38.0342H67.5339C67.8629 38.0342 68.1297 37.7676 68.1298 37.4387C68.1298 37.1097 67.8629 36.8428 67.5339 36.8428H65.8647C65.5249 36.8428 65.2494 36.5673 65.2494 36.2274V34.9985C65.2494 34.6586 65.5249 34.3831 65.8647 34.3831H70.1679C70.5078 34.3831 70.7833 34.6586 70.7833 34.9985V36.8425L70.7824 36.8434V37.4387C70.7825 37.7676 71.0491 38.0342 71.378 38.0342H73.2584C73.6268 38.0342 73.9048 37.6738 73.8632 37.3077C73.827 36.9891 73.5633 36.7806 73.2427 36.7824L72.4873 36.7866C72.1462 36.7885 71.8687 36.5124 71.8686 36.1713V34.2301C71.8686 33.8903 71.5931 33.6148 71.2533 33.6148H67.8416C67.5017 33.6148 67.2262 33.3392 67.2262 32.9994V32.1502C67.2262 31.8104 67.5017 31.5348 67.8416 31.5348H71.4194C71.6675 31.5348 71.8686 31.3337 71.8686 31.0856C71.8686 30.8375 71.6675 30.6364 71.4194 30.6364H65.9958C65.6559 30.6364 65.3804 30.3609 65.3804 30.021V29.1283C65.3804 28.7884 65.6559 28.5129 65.9958 28.5129H67.6971C68.0369 28.5129 68.3125 28.2374 68.3125 27.8975V27.3846C68.3125 27.0447 68.588 26.7692 68.9278 26.7692H71.0817Z" fill="#10213D"/>
<path d="M83.0769 33.8461C83.5867 33.8461 84 34.2594 84 34.7692V36.3077C84 36.8175 83.5867 37.2307 83.0769 37.2307H81.5384C81.0286 37.2307 80.6153 36.8175 80.6153 36.3077V34.7692C80.6153 34.2594 81.0286 33.8461 81.5384 33.8461H83.0769Z" fill="#10213D"/>
<path d="M32.3083 25.5384C32.8177 25.5384 33.2307 25.9515 33.2307 26.4609V28.0006C33.2307 28.51 32.8177 28.9231 32.3083 28.9231H30.7686C30.2592 28.9231 29.8461 28.51 29.8461 28.0006V26.4609C29.8461 25.9515 30.2592 25.5384 30.7686 25.5384H32.3083Z" fill="#10213D"/>
<path d="M53.539 25.5384C54.0484 25.5384 54.4615 25.9515 54.4615 26.4609V28.0006C54.4615 28.51 54.0484 28.9231 53.539 28.9231H51.9994C51.49 28.9231 51.0769 28.51 51.0769 28.0006V26.4609C51.0769 25.9515 51.49 25.5384 51.9994 25.5384H53.539Z" fill="#10213D"/>
<path d="M68.7512 0C69.2605 0.000106637 69.6736 0.413147 69.6736 0.922475V7.3756C69.6736 10.9363 69.2415 13.4712 68.5564 15.4174C67.8678 17.3734 66.9377 18.693 66.0111 19.8281C65.7294 20.173 65.1897 20.1295 64.9669 19.744L64.1589 18.3452C64.1387 18.3102 64.1211 18.2736 64.1063 18.2359L64.0312 18.0442C63.9711 17.8903 63.9996 17.716 64.1051 17.5889C64.9496 16.5556 65.6215 15.4629 66.0973 14.0111C66.6088 12.4502 66.9062 10.4349 66.9062 7.57692V0.922475C66.9062 0.413081 67.3193 0 67.8287 0H68.7512Z" fill="#10213D"/>
<path d="M17.2308 6.15384C17.7406 6.15384 18.1538 6.56712 18.1538 7.07692V8.30769C18.1538 8.81749 17.7406 9.23076 17.2308 9.23076H14.1538C13.644 9.23076 13.2308 9.64404 13.2308 10.1538V12.9231C13.2308 13.4329 12.8175 13.8461 12.3077 13.8461H11.0769V16.616C11.0769 17.1254 10.6638 17.5385 10.1544 17.5385H8.61538V19.0775C8.61538 19.5869 8.2023 20 7.6929 20H4.30709C3.79769 20 3.38461 19.5869 3.38461 19.0775V17.5379C3.38461 17.0285 3.79769 16.6154 4.30709 16.6154H7.6923V13.8455C7.6923 13.3362 8.10538 12.9231 8.61478 12.9231H9.84615V10.1538C9.84615 9.64404 9.43287 9.23076 8.92307 9.23076H2.46154C1.95174 9.23076 1.53846 8.81749 1.53846 8.30769V7.07692C1.53846 6.56712 1.95174 6.15384 2.46154 6.15384H17.2308Z" fill="#10213D"/>
<path fill-rule="evenodd" clip-rule="evenodd" d="M61.7407 0C62.1956 6.34205e-05 62.551 0.393144 62.5054 0.845853C62.3266 2.61115 61.433 7.58656 59.2677 12.0397C58.6914 13.0379 58.353 13.6102 57.8909 13.9363C57.544 14.1811 57.2332 14.5246 57.2331 14.9492V16.3077C57.2331 16.8175 56.8199 17.2307 56.3101 17.2308H53.4871C53.5212 17.3271 53.5408 17.4304 53.5408 17.5385V19.0769C53.5408 19.5867 53.1275 20 52.6178 20H49.2331C48.7234 20 48.3101 19.5867 48.3101 19.0769V17.5385C48.3101 17.0287 48.7234 16.6154 49.2331 16.6154H52.0559C52.0218 16.519 52.0024 16.4157 52.0024 16.3077V14.7692C52.0024 14.2594 52.4157 13.8462 52.9255 13.8461H54.725C55.1655 13.8461 55.5446 13.5348 55.6304 13.1028L55.9002 11.7449C55.9603 11.4421 55.866 11.1281 55.6415 10.9162C54.3244 9.67279 52.8177 8.60425 51.6066 7.814C51.2249 7.56493 50.7223 7.64398 50.4056 7.97175C49.9948 8.39703 49.4848 8.86811 48.811 9.38551C48.4741 9.64427 47.9912 9.58058 47.7328 9.24338L46.9273 8.192C46.6706 7.85687 46.7324 7.37737 47.0655 7.11808C49.8388 4.95866 50.9155 2.6897 51.7884 0.485577C51.9045 0.192506 52.1878 1.35049e-05 52.503 0H61.7407ZM54.5258 2.76743C54.1611 2.76744 53.8327 2.98336 53.6737 3.3116C53.4797 3.71188 53.2875 4.06933 53.0979 4.39633C52.8428 4.83631 52.9598 5.40443 53.3813 5.689C54.6804 6.56578 55.7396 7.34879 56.6063 8.05949C57.0756 8.44423 57.792 8.31418 58.0306 7.75631C58.4753 6.71638 58.873 5.47748 59.1836 3.82422C59.2877 3.26974 58.8538 2.76743 58.2896 2.76743H54.5258Z" fill="#10213D"/>
<path d="M74.454 0C74.9637 0.000101817 75.3771 0.413338 75.3771 0.923076V15.6827C75.3771 16.1925 75.7903 16.6058 76.3001 16.6058H77.2232C77.3294 16.6058 77.4312 16.6244 77.5261 16.6574V14.4609C77.5261 13.9516 77.9389 13.5385 78.4483 13.5385H79.9858V9.84555C79.9858 9.33617 80.3986 8.9231 80.908 8.92307H82.448C82.9573 8.92312 83.3704 9.33618 83.3704 9.84555V13.5391C83.3704 14.0484 82.9573 14.4615 82.448 14.4615H80.9107V16.9237C80.9107 17.433 80.4976 17.8461 79.9882 17.8461H78.4483C78.3424 17.8461 78.241 17.8273 78.1463 17.7945V19.0673C78.1463 19.577 77.7329 19.9903 77.2232 19.9904H75.3819C75.3792 19.9904 75.3771 19.9925 75.3771 19.9952C75.3771 19.9978 75.3748 19.9999 75.3723 20H73.2232C72.7134 20 72.3001 19.5867 72.3001 19.0769V0.923076C72.3001 0.413275 72.7134 0 73.2232 0H74.454Z" fill="#10213D"/>
<path d="M41.6764 5.84615C42.2867 5.84617 42.7302 6.4282 42.5595 7.01412C41.7729 9.71226 40.8175 12.3509 39.0429 14.5583C36.9523 17.1589 33.7916 19.0876 28.6664 19.9744C28.2504 20.0464 27.8541 19.7696 27.7785 19.3543L27.5102 17.8768C27.4327 17.4501 27.7229 17.0437 28.1517 16.9787C31.4143 16.4843 33.8394 15.6561 35.7404 13.8735C37.3603 12.3544 38.6704 10.0752 39.7316 6.52103C39.8503 6.12363 40.2129 5.84615 40.6277 5.84615H41.6764Z" fill="#10213D"/>
<path d="M27.213 6.40685C27.3606 6.02045 27.7871 5.81984 28.1788 5.95282C30.6415 6.78923 31.8917 7.5684 33.6445 8.7521C33.956 8.96247 34.07 9.36717 33.914 9.70913L33.332 10.9847C33.1317 11.4235 32.5817 11.572 32.1878 11.2936C30.3838 10.0176 29.6426 9.50031 27.2046 8.63731C26.7972 8.49315 26.5886 8.04162 26.7428 7.63792L27.213 6.40685Z" fill="#10213D"/>
<path d="M28.6061 1.17728C28.7574 0.802684 29.1729 0.609071 29.5571 0.734074C32.4114 1.6623 33.9817 2.73943 35.064 3.4384C35.3882 3.64765 35.5071 4.06499 35.3419 4.41376L34.7377 5.6896C34.5332 6.1212 33.989 6.26421 33.5988 5.98888C32.1212 4.94584 30.9705 4.2412 28.5805 3.35036C28.1748 3.19907 27.9737 2.74286 28.1358 2.34134L28.6061 1.17728Z" fill="#10213D"/>
<path d="M19.6929 0C20.2023 0 20.6154 0.413081 20.6154 0.922475V2.46214C20.6154 2.97153 20.2023 3.38461 19.6929 3.38461H18.1532C17.6438 3.38461 17.2308 2.97153 17.2308 2.46214V0.922475C17.2308 0.413081 17.6438 0 18.1532 0H19.6929Z" fill="#10213D"/>
<path d="M24.3083 0C24.8177 0 25.2308 0.413081 25.2308 0.922475V2.46214C25.2308 2.97153 24.8177 3.38461 24.3083 3.38461H22.7686C22.2592 3.38461 21.8461 2.97153 21.8461 2.46214V0.922475C21.8461 0.413081 22.2592 0 22.7686 0H24.3083Z" fill="#10213D"/>
<path d="M40.3383 0C40.8477 1.71325e-05 41.2608 0.413092 41.2608 0.922475V2.46214C41.2608 2.97152 40.8477 3.3846 40.3383 3.38461H38.7984C38.289 3.38456 37.8762 2.9715 37.8762 2.46214V0.922475C37.8762 0.413115 38.289 5.4128e-05 38.7984 0H40.3383Z" fill="#10213D"/>
<path d="M44.9537 0C45.4631 1.71325e-05 45.8762 0.413092 45.8762 0.922475V2.46214C45.8762 2.97152 45.4631 3.3846 44.9537 3.38461H43.4137C42.9044 3.38456 42.4916 2.9715 42.4916 2.46214V0.922475C42.4916 0.413115 42.9044 5.41825e-05 43.4137 0H44.9537Z" fill="#10213D"/>
<path d="M14.1544 0C14.6638 0 15.0769 0.413081 15.0769 0.922475V2.15445C15.0769 2.66384 14.6638 3.07692 14.1544 3.07692H3.9994C3.49 3.07692 3.07692 2.66384 3.07692 2.15445V0.922475C3.07692 0.413081 3.49 0 3.9994 0H14.1544Z" fill="#10213D"/>
</svg>
