<svg width="75" height="81" viewBox="0 0 75 81" fill="none" xmlns="http://www.w3.org/2000/svg">
<path fill-rule="evenodd" clip-rule="evenodd" d="M0 8.59166C0 3.09433 5.09344 -0.987984 10.459 0.209815L45.741 8.08667C50.6277 8.91232 57.7375 11.4404 63.7229 16.4652C69.8676 21.6239 74.8376 29.4476 74.8376 40.5001V40.5268L74.8343 40.9842L74.834 40.9965V41.0087C74.6823 51.887 69.6885 59.5813 63.5797 64.6543C57.6256 69.5988 50.5906 72.0936 45.741 72.913L10.459 80.7902C5.17751 81.9692 0.159234 78.0324 0.00359428 72.6653L0 72.4086V8.59166Z" fill="#10213D"/>
<path d="M41.3483 66.191C41.3479 68.4889 39.7529 70.4789 37.5102 70.9796L9.65709 77.198C6.59115 77.8825 3.68049 75.5501 3.68041 72.4087V8.59171C3.68041 5.45024 6.59111 3.11755 9.65709 3.80204L37.5188 10.0224C39.7622 10.5232 41.3573 12.5141 41.3569 14.8127L41.3483 66.191Z" fill="white"/>
<rect width="4.7604" height="4.7604" rx="0.915619" transform="matrix(-1.00493 0 0 1.00493 37.9103 38.0343)" fill="#10213D"/>
<path d="M71.2182 40.9169C70.9826 57.8247 57.6949 65.791 48.6025 68.4493C46.786 68.9804 45.0863 67.5423 45.0863 65.6497V15.2693C45.0863 13.3768 46.7854 11.9385 48.602 12.4696C57.776 15.1516 71.2215 23.2375 71.2215 40.4595L71.2182 40.9169Z" fill="url(#paint0_linear_1627_9041)"/>
<path d="M50.2888 64.9832C50.6275 64.9832 50.9022 65.2578 50.9022 65.5966V66.8235C50.9022 67.1623 50.6275 67.4369 50.2888 67.4369H49.0619C48.7231 67.4369 48.4485 67.1623 48.4485 66.8235V65.5966C48.4485 65.2578 48.7231 64.9832 49.0619 64.9832H50.2888Z" fill="white"/>
<path d="M45.9948 64.9832C46.3336 64.9832 46.6082 65.2578 46.6082 65.5966V66.8235C46.6082 67.1623 46.3336 67.4369 45.9948 67.4369H45.668C45.305 66.9453 45.0863 66.3266 45.0863 65.649V64.9832H45.9948Z" fill="white"/>
<path d="M54.5827 64.9832C54.9215 64.9832 55.1961 65.2578 55.1961 65.5966V65.7976C54.3777 66.2217 53.5613 66.6057 52.7559 66.9514C52.7472 66.9101 52.7425 66.8673 52.7425 66.8235V65.5966C52.7425 65.2578 53.0171 64.9832 53.3559 64.9832H54.5827Z" fill="white"/>
<path d="M50.2888 60.6892C50.6275 60.6892 50.9022 60.9639 50.9022 61.3027V62.5295C50.9022 62.8683 50.6275 63.1429 50.2888 63.1429H49.0619C48.7231 63.1429 48.4485 62.8683 48.4485 62.5295V61.3027C48.4485 60.9639 48.7231 60.6892 49.0619 60.6892H50.2888Z" fill="white"/>
<path d="M54.5827 60.6892C54.9215 60.6892 55.1961 60.9639 55.1961 61.3027V62.5295C55.1961 62.8683 54.9215 63.1429 54.5827 63.1429H53.3559C53.0171 63.1429 52.7425 62.8683 52.7425 62.5295V61.3027C52.7425 60.9639 53.0171 60.6892 53.3559 60.6892H54.5827Z" fill="white"/>
<path d="M58.8767 60.6892C59.2155 60.6892 59.4901 60.9639 59.4901 61.3027V62.5295C59.4901 62.8683 59.2155 63.1429 58.8767 63.1429H57.6498C57.3111 63.1429 57.0364 62.8683 57.0364 62.5295V61.3027C57.0364 60.9639 57.3111 60.6892 57.6498 60.6892H58.8767Z" fill="white"/>
<path d="M45.9948 60.6892C46.3336 60.6892 46.6082 60.9639 46.6082 61.3027V62.5295C46.6082 62.8683 46.3336 63.1429 45.9948 63.1429H45.0863V60.6892H45.9948Z" fill="white"/>
<path d="M62.5384 60.6892C62.1427 61.0559 61.7395 61.4093 61.3304 61.7502V61.3027C61.3304 60.9639 61.605 60.6892 61.9438 60.6892H62.5384Z" fill="white"/>
<path d="M50.2888 56.3953C50.6275 56.3953 50.9022 56.6699 50.9022 57.0087V58.2355C50.9022 58.5743 50.6275 58.849 50.2888 58.849H49.0619C48.7231 58.849 48.4485 58.5743 48.4485 58.2355V57.0087C48.4485 56.6699 48.7231 56.3953 49.0619 56.3953H50.2888Z" fill="white"/>
<path d="M54.5827 56.3953C54.9215 56.3953 55.1961 56.6699 55.1961 57.0087V58.2355C55.1961 58.5743 54.9215 58.849 54.5827 58.849H53.3559C53.0171 58.849 52.7425 58.5743 52.7425 58.2355V57.0087C52.7425 56.6699 53.0171 56.3953 53.3559 56.3953H54.5827Z" fill="white"/>
<path d="M58.8767 56.3953C59.2155 56.3953 59.4901 56.6699 59.4901 57.0087V58.2355C59.4901 58.5743 59.2155 58.849 58.8767 58.849H57.6498C57.3111 58.849 57.0364 58.5743 57.0364 58.2355V57.0087C57.0364 56.6699 57.3111 56.3953 57.6498 56.3953H58.8767Z" fill="white"/>
<path d="M63.1706 56.3953C63.5094 56.3953 63.7841 56.6699 63.7841 57.0087V58.2355C63.7841 58.5743 63.5094 58.849 63.1706 58.849H61.9438C61.605 58.849 61.3304 58.5743 61.3304 58.2355V57.0087C61.3304 56.6699 61.605 56.3953 61.9438 56.3953H63.1706Z" fill="white"/>
<path d="M45.9948 56.3953C46.3336 56.3953 46.6082 56.6699 46.6082 57.0087V58.2355C46.6082 58.5743 46.3336 58.849 45.9948 58.849H45.0863V56.3953H45.9948Z" fill="white"/>
<path d="M66.3288 56.3953C66.0997 56.717 65.8648 57.0319 65.6243 57.34V57.0087C65.6243 56.6699 65.899 56.3953 66.2378 56.3953H66.3288Z" fill="white"/>
<path d="M50.2888 52.1013C50.6275 52.1013 50.9022 52.376 50.9022 52.7147V53.9416C50.9022 54.2804 50.6275 54.555 50.2888 54.555H49.0619C48.7231 54.555 48.4485 54.2804 48.4485 53.9416V52.7147C48.4485 52.376 48.7231 52.1013 49.0619 52.1013H50.2888Z" fill="white"/>
<path d="M54.5827 52.1013C54.9215 52.1013 55.1961 52.376 55.1961 52.7147V53.9416C55.1961 54.2804 54.9215 54.555 54.5827 54.555H53.3559C53.0171 54.555 52.7425 54.2804 52.7425 53.9416V52.7147C52.7425 52.376 53.0171 52.1013 53.3559 52.1013H54.5827Z" fill="white"/>
<path d="M58.8767 52.1013C59.2155 52.1013 59.4901 52.376 59.4901 52.7147V53.9416C59.4901 54.2804 59.2155 54.555 58.8767 54.555H57.6498C57.3111 54.555 57.0364 54.2804 57.0364 53.9416V52.7147C57.0364 52.376 57.3111 52.1013 57.6498 52.1013H58.8767Z" fill="white"/>
<path d="M63.1706 52.1013C63.5094 52.1013 63.7841 52.376 63.7841 52.7147V53.9416C63.7841 54.2804 63.5094 54.555 63.1706 54.555H61.9438C61.605 54.555 61.3304 54.2804 61.3304 53.9416V52.7147C61.3304 52.376 61.605 52.1013 61.9438 52.1013H63.1706Z" fill="white"/>
<path d="M67.4646 52.1013C67.8034 52.1013 68.078 52.376 68.078 52.7147V53.5756C67.9008 53.9068 67.7178 54.2322 67.5287 54.5514C67.5076 54.5536 67.4863 54.555 67.4646 54.555H66.2378C65.899 54.555 65.6243 54.2804 65.6243 53.9416V52.7147C65.6243 52.376 65.899 52.1013 66.2378 52.1013H67.4646Z" fill="white"/>
<path d="M45.9948 52.1013C46.3336 52.1013 46.6082 52.376 46.6082 52.7147V53.9416C46.6082 54.2804 46.3336 54.555 45.9948 54.555H45.0863V52.1013H45.9948Z" fill="white"/>
<path d="M50.2888 47.8074C50.6275 47.8074 50.9022 48.082 50.9022 48.4208V49.6476C50.9022 49.9864 50.6275 50.2611 50.2888 50.2611H49.0619C48.7231 50.2611 48.4485 49.9864 48.4485 49.6476V48.4208C48.4485 48.082 48.7231 47.8074 49.0619 47.8074H50.2888Z" fill="white"/>
<path d="M54.5827 47.8074C54.9215 47.8074 55.1961 48.082 55.1961 48.4208V49.6476C55.1961 49.9864 54.9215 50.2611 54.5827 50.2611H53.3559C53.0171 50.2611 52.7425 49.9864 52.7425 49.6476V48.4208C52.7425 48.082 53.0171 47.8074 53.3559 47.8074H54.5827Z" fill="white"/>
<path d="M58.8767 47.8074C59.2155 47.8074 59.4901 48.082 59.4901 48.4208V49.6476C59.4901 49.9864 59.2155 50.2611 58.8767 50.2611H57.6498C57.3111 50.2611 57.0364 49.9864 57.0364 49.6476V48.4208C57.0364 48.082 57.3111 47.8074 57.6498 47.8074H58.8767Z" fill="white"/>
<path d="M63.1706 47.8074C63.5094 47.8074 63.7841 48.082 63.7841 48.4208V49.6476C63.7841 49.9864 63.5094 50.2611 63.1706 50.2611H61.9438C61.605 50.2611 61.3304 49.9864 61.3304 49.6476V48.4208C61.3304 48.082 61.605 47.8074 61.9438 47.8074H63.1706Z" fill="white"/>
<path d="M67.4646 47.8074C67.8034 47.8074 68.078 48.082 68.078 48.4208V49.6476C68.078 49.9864 67.8034 50.2611 67.4646 50.2611H66.2378C65.899 50.2611 65.6243 49.9864 65.6243 49.6476V48.4208C65.6243 48.082 65.899 47.8074 66.2378 47.8074H67.4646Z" fill="white"/>
<path d="M45.9948 47.8074C46.3336 47.8074 46.6082 48.082 46.6082 48.4208V49.6476C46.6082 49.9864 46.3336 50.2611 45.9948 50.2611H45.0863V47.8074H45.9948Z" fill="white"/>
<path d="M70.3113 47.8487C70.191 48.3119 70.0598 48.7663 69.9183 49.2121V48.4208C69.9183 48.1598 70.0815 47.9373 70.3113 47.8487Z" fill="white"/>
<path d="M50.2888 43.5134C50.6275 43.5134 50.9022 43.788 50.9022 44.1268V45.3537C50.9022 45.6924 50.6275 45.9671 50.2888 45.9671H49.0619C48.7231 45.9671 48.4485 45.6924 48.4485 45.3537V44.1268C48.4485 43.788 48.7231 43.5134 49.0619 43.5134H50.2888Z" fill="white"/>
<path d="M54.5827 43.5134C54.9215 43.5134 55.1961 43.788 55.1961 44.1268V45.3537C55.1961 45.6924 54.9215 45.9671 54.5827 45.9671H53.3559C53.0171 45.9671 52.7425 45.6924 52.7425 45.3537V44.1268C52.7425 43.788 53.0171 43.5134 53.3559 43.5134H54.5827Z" fill="white"/>
<path d="M58.8767 43.5134C59.2155 43.5134 59.4901 43.788 59.4901 44.1268V45.3537C59.4901 45.6924 59.2155 45.9671 58.8767 45.9671H57.6498C57.3111 45.9671 57.0364 45.6924 57.0364 45.3537V44.1268C57.0364 43.788 57.3111 43.5134 57.6498 43.5134H58.8767Z" fill="white"/>
<path d="M63.1706 43.5134C63.5094 43.5134 63.7841 43.788 63.7841 44.1268V45.3537C63.7841 45.6924 63.5094 45.9671 63.1706 45.9671H61.9438C61.605 45.9671 61.3304 45.6924 61.3304 45.3537V44.1268C61.3304 43.788 61.605 43.5134 61.9438 43.5134H63.1706Z" fill="white"/>
<path d="M67.4646 43.5134C67.8034 43.5134 68.078 43.788 68.078 44.1268V45.3537C68.078 45.6924 67.8034 45.9671 67.4646 45.9671H66.2378C65.899 45.9671 65.6243 45.6924 65.6243 45.3537V44.1268C65.6243 43.788 65.899 43.5134 66.2378 43.5134H67.4646Z" fill="white"/>
<path d="M71.0748 43.5134C70.9924 44.3555 70.8758 45.1731 70.7285 45.9671H70.5317C70.1929 45.9671 69.9183 45.6924 69.9183 45.3537V44.1268C69.9183 43.788 70.1929 43.5134 70.5317 43.5134H71.0748Z" fill="white"/>
<path d="M45.9948 43.5134C46.3336 43.5134 46.6082 43.788 46.6082 44.1268V45.3537C46.6082 45.6924 46.3336 45.9671 45.9948 45.9671H45.0863V43.5134H45.9948Z" fill="white"/>
<path d="M50.2888 39.2194C50.6275 39.2194 50.9022 39.4941 50.9022 39.8329V41.0597C50.9022 41.3985 50.6275 41.6731 50.2888 41.6731H49.0619C48.7231 41.6731 48.4485 41.3985 48.4485 41.0597V39.8329C48.4485 39.4941 48.7231 39.2194 49.0619 39.2194H50.2888Z" fill="white"/>
<path d="M54.5827 39.2194C54.9215 39.2194 55.1961 39.4941 55.1961 39.8329V41.0597C55.1961 41.3985 54.9215 41.6731 54.5827 41.6731H53.3559C53.0171 41.6731 52.7425 41.3985 52.7425 41.0597V39.8329C52.7425 39.4941 53.0171 39.2194 53.3559 39.2194H54.5827Z" fill="white"/>
<path d="M58.8767 39.2194C59.2155 39.2194 59.4901 39.4941 59.4901 39.8329V41.0597C59.4901 41.3985 59.2155 41.6731 58.8767 41.6731H57.6498C57.3111 41.6731 57.0364 41.3985 57.0364 41.0597V39.8329C57.0364 39.4941 57.3111 39.2194 57.6498 39.2194H58.8767Z" fill="white"/>
<path d="M63.1706 39.2194C63.5094 39.2194 63.7841 39.4941 63.7841 39.8329V41.0597C63.7841 41.3985 63.5094 41.6731 63.1706 41.6731H61.9438C61.605 41.6731 61.3304 41.3985 61.3304 41.0597V39.8329C61.3304 39.4941 61.605 39.2194 61.9438 39.2194H63.1706Z" fill="white"/>
<path d="M67.4646 39.2194C67.8034 39.2194 68.078 39.4941 68.078 39.8329V41.0597C68.078 41.3985 67.8034 41.6731 67.4646 41.6731H66.2378C65.899 41.6731 65.6243 41.3985 65.6243 41.0597V39.8329C65.6243 39.4941 65.899 39.2194 66.2378 39.2194H67.4646Z" fill="white"/>
<path d="M71.1979 39.2194C71.2135 39.6272 71.2215 40.0403 71.2215 40.4589L71.2182 40.9162C71.2147 41.1706 71.2081 41.4228 71.1988 41.6731H70.5317C70.1929 41.6731 69.9183 41.3985 69.9183 41.0597V39.8329C69.9183 39.4941 70.1929 39.2194 70.5317 39.2194H71.1979Z" fill="white"/>
<path d="M45.9948 39.2194C46.3336 39.2194 46.6082 39.4941 46.6082 39.8329V41.0597C46.6082 41.3985 46.3336 41.6731 45.9948 41.6731H45.0863V39.2194H45.9948Z" fill="white"/>
<path d="M50.2888 34.9255C50.6275 34.9255 50.9022 35.2001 50.9022 35.5389V36.7657C50.9022 37.1045 50.6275 37.3792 50.2888 37.3792H49.0619C48.7231 37.3792 48.4485 37.1045 48.4485 36.7657V35.5389C48.4485 35.2001 48.7231 34.9255 49.0619 34.9255H50.2888Z" fill="white"/>
<path d="M54.5827 34.9255C54.9215 34.9255 55.1961 35.2001 55.1961 35.5389V36.7657C55.1961 37.1045 54.9215 37.3792 54.5827 37.3792H53.3559C53.0171 37.3792 52.7425 37.1045 52.7425 36.7657V35.5389C52.7425 35.2001 53.0171 34.9255 53.3559 34.9255H54.5827Z" fill="white"/>
<path d="M58.8767 34.9255C59.2155 34.9255 59.4901 35.2001 59.4901 35.5389V36.7657C59.4901 37.1045 59.2155 37.3792 58.8767 37.3792H57.6498C57.3111 37.3792 57.0364 37.1045 57.0364 36.7657V35.5389C57.0364 35.2001 57.3111 34.9255 57.6498 34.9255H58.8767Z" fill="white"/>
<path d="M63.1706 34.9255C63.5094 34.9255 63.7841 35.2001 63.7841 35.5389V36.7657C63.7841 37.1045 63.5094 37.3792 63.1706 37.3792H61.9438C61.605 37.3792 61.3304 37.1045 61.3304 36.7657V35.5389C61.3304 35.2001 61.605 34.9255 61.9438 34.9255H63.1706Z" fill="white"/>
<path d="M67.4646 34.9255C67.8034 34.9255 68.078 35.2001 68.078 35.5389V36.7657C68.078 37.1045 67.8034 37.3792 67.4646 37.3792H66.2378C65.899 37.3792 65.6243 37.1045 65.6243 36.7657V35.5389C65.6243 35.2001 65.899 34.9255 66.2378 34.9255H67.4646Z" fill="white"/>
<path d="M70.7243 34.9255C70.8724 35.7194 70.9896 36.5371 71.0727 37.3792H70.5317C70.1929 37.3792 69.9183 37.1045 69.9183 36.7657V35.5389C69.9183 35.2001 70.1929 34.9255 70.5317 34.9255H70.7243Z" fill="white"/>
<path d="M45.9948 34.9255C46.3336 34.9255 46.6082 35.2001 46.6082 35.5389V36.7657C46.6082 37.1045 46.3336 37.3792 45.9948 37.3792H45.0863V34.9255H45.9948Z" fill="white"/>
<path d="M50.2888 30.6315C50.6275 30.6315 50.9022 30.9062 50.9022 31.2449V32.4718C50.9022 32.8106 50.6275 33.0852 50.2888 33.0852H49.0619C48.7231 33.0852 48.4485 32.8106 48.4485 32.4718V31.2449C48.4485 30.9062 48.7231 30.6315 49.0619 30.6315H50.2888Z" fill="white"/>
<path d="M54.5827 30.6315C54.9215 30.6315 55.1961 30.9062 55.1961 31.2449V32.4718C55.1961 32.8106 54.9215 33.0852 54.5827 33.0852H53.3559C53.0171 33.0852 52.7425 32.8106 52.7425 32.4718V31.2449C52.7425 30.9062 53.0171 30.6315 53.3559 30.6315H54.5827Z" fill="white"/>
<path d="M58.8767 30.6315C59.2155 30.6315 59.4901 30.9062 59.4901 31.2449V32.4718C59.4901 32.8106 59.2155 33.0852 58.8767 33.0852H57.6498C57.3111 33.0852 57.0364 32.8106 57.0364 32.4718V31.2449C57.0364 30.9062 57.3111 30.6315 57.6498 30.6315H58.8767Z" fill="white"/>
<path d="M63.1706 30.6315C63.5094 30.6315 63.7841 30.9062 63.7841 31.2449V32.4718C63.7841 32.8106 63.5094 33.0852 63.1706 33.0852H61.9438C61.605 33.0852 61.3304 32.8106 61.3304 32.4718V31.2449C61.3304 30.9062 61.605 30.6315 61.9438 30.6315H63.1706Z" fill="white"/>
<path d="M67.4646 30.6315C67.8034 30.6315 68.078 30.9062 68.078 31.2449V32.4718C68.078 32.8106 67.8034 33.0852 67.4646 33.0852H66.2378C65.899 33.0852 65.6243 32.8106 65.6243 32.4718V31.2449C65.6243 30.9062 65.899 30.6315 66.2378 30.6315H67.4646Z" fill="white"/>
<path d="M45.9948 30.6315C46.3336 30.6315 46.6082 30.9062 46.6082 31.2449V32.4718C46.6082 32.8106 46.3336 33.0852 45.9948 33.0852H45.0863V30.6315H45.9948Z" fill="white"/>
<path d="M69.9183 31.7038C70.0572 32.1412 70.186 32.587 70.3044 33.0412C70.0782 32.9508 69.9183 32.7302 69.9183 32.4718V31.7038Z" fill="white"/>
<path d="M50.2888 26.3376C50.6275 26.3376 50.9022 26.6122 50.9022 26.951V28.1778C50.9022 28.5166 50.6275 28.7912 50.2888 28.7912H49.0619C48.7231 28.7912 48.4485 28.5166 48.4485 28.1778V26.951C48.4485 26.6122 48.7231 26.3376 49.0619 26.3376H50.2888Z" fill="white"/>
<path d="M54.5827 26.3376C54.9215 26.3376 55.1961 26.6122 55.1961 26.951V28.1778C55.1961 28.5166 54.9215 28.7912 54.5827 28.7912H53.3559C53.0171 28.7912 52.7425 28.5166 52.7425 28.1778V26.951C52.7425 26.6122 53.0171 26.3376 53.3559 26.3376H54.5827Z" fill="white"/>
<path d="M58.8767 26.3376C59.2155 26.3376 59.4901 26.6122 59.4901 26.951V28.1778C59.4901 28.5166 59.2155 28.7912 58.8767 28.7912H57.6498C57.3111 28.7912 57.0364 28.5166 57.0364 28.1778V26.951C57.0364 26.6122 57.3111 26.3376 57.6498 26.3376H58.8767Z" fill="white"/>
<path d="M63.1706 26.3376C63.5094 26.3376 63.7841 26.6122 63.7841 26.951V28.1778C63.7841 28.5166 63.5094 28.7912 63.1706 28.7912H61.9438C61.605 28.7912 61.3304 28.5166 61.3304 28.1778V26.951C61.3304 26.6122 61.605 26.3376 61.9438 26.3376H63.1706Z" fill="white"/>
<path d="M67.5134 26.34C67.7079 26.6675 67.896 27.0014 68.078 27.3416V28.1778C68.078 28.5166 67.8034 28.7912 67.4646 28.7912H66.2378C65.899 28.7912 65.6243 28.5166 65.6243 28.1778V26.951C65.6243 26.6122 65.899 26.3376 66.2378 26.3376H67.4646C67.4811 26.3376 67.4973 26.3387 67.5134 26.34Z" fill="white"/>
<path d="M45.9948 26.3376C46.3336 26.3376 46.6082 26.6122 46.6082 26.951V28.1778C46.6082 28.5166 46.3336 28.7912 45.9948 28.7912H45.0863V26.3376H45.9948Z" fill="white"/>
<path d="M50.2888 22.0436C50.6275 22.0436 50.9022 22.3182 50.9022 22.657V23.8839C50.9022 24.2226 50.6275 24.4973 50.2888 24.4973H49.0619C48.7231 24.4973 48.4485 24.2226 48.4485 23.8839V22.657C48.4485 22.3182 48.7231 22.0436 49.0619 22.0436H50.2888Z" fill="white"/>
<path d="M54.5827 22.0436C54.9215 22.0436 55.1961 22.3182 55.1961 22.657V23.8839C55.1961 24.2226 54.9215 24.4973 54.5827 24.4973H53.3559C53.0171 24.4973 52.7425 24.2226 52.7425 23.8839V22.657C52.7425 22.3182 53.0171 22.0436 53.3559 22.0436H54.5827Z" fill="white"/>
<path d="M58.8767 22.0436C59.2155 22.0436 59.4901 22.3182 59.4901 22.657V23.8839C59.4901 24.2226 59.2155 24.4973 58.8767 24.4973H57.6498C57.3111 24.4973 57.0364 24.2226 57.0364 23.8839V22.657C57.0364 22.3182 57.3111 22.0436 57.6498 22.0436H58.8767Z" fill="white"/>
<path d="M63.1706 22.0436C63.5094 22.0436 63.7841 22.3182 63.7841 22.657V23.8839C63.7841 24.2226 63.5094 24.4973 63.1706 24.4973H61.9438C61.605 24.4973 61.3304 24.2226 61.3304 23.8839V22.657C61.3304 22.3182 61.605 22.0436 61.9438 22.0436H63.1706Z" fill="white"/>
<path d="M65.6243 23.5778C65.8586 23.8778 66.0877 24.1843 66.3111 24.4973H66.2378C65.899 24.4973 65.6243 24.2226 65.6243 23.8839V23.5778Z" fill="white"/>
<path d="M45.9948 22.0436C46.3336 22.0436 46.6082 22.3182 46.6082 22.657V23.8839C46.6082 24.2226 46.3336 24.4973 45.9948 24.4973H45.0863V22.0436H45.9948Z" fill="white"/>
<path d="M50.2888 17.7496C50.6275 17.7496 50.9022 18.0243 50.9022 18.3631V19.5899C50.9022 19.9287 50.6275 20.2033 50.2888 20.2033H49.0619C48.7231 20.2033 48.4485 19.9287 48.4485 19.5899V18.3631C48.4485 18.0243 48.7231 17.7496 49.0619 17.7496H50.2888Z" fill="white"/>
<path d="M54.5827 17.7496C54.9215 17.7496 55.1961 18.0243 55.1961 18.3631V19.5899C55.1961 19.9287 54.9215 20.2033 54.5827 20.2033H53.3559C53.0171 20.2033 52.7425 19.9287 52.7425 19.5899V18.3631C52.7425 18.0243 53.0171 17.7496 53.3559 17.7496H54.5827Z" fill="white"/>
<path d="M58.8767 17.7496C59.2155 17.7496 59.4901 18.0243 59.4901 18.3631V19.5899C59.4901 19.9287 59.2155 20.2033 58.8767 20.2033H57.6498C57.3111 20.2033 57.0364 19.9287 57.0364 19.5899V18.3631C57.0364 18.0243 57.3111 17.7496 57.6498 17.7496H58.8767Z" fill="white"/>
<path d="M61.3304 19.1673C61.7302 19.5004 62.1243 19.8456 62.5114 20.2033H61.9438C61.605 20.2033 61.3304 19.9287 61.3304 19.5899V19.1673Z" fill="white"/>
<path d="M45.9948 17.7496C46.3336 17.7496 46.6082 18.0243 46.6082 18.3631V19.5899C46.6082 19.9287 46.3336 20.2033 45.9948 20.2033H45.0863V17.7496H45.9948Z" fill="white"/>
<path d="M50.2888 13.4557C50.6275 13.4557 50.9022 13.7303 50.9022 14.0691V15.2959C50.9022 15.6347 50.6275 15.9094 50.2888 15.9094H49.0619C48.7231 15.9094 48.4485 15.6347 48.4485 15.2959V14.0691C48.4485 13.7303 48.7231 13.4557 49.0619 13.4557H50.2888Z" fill="white"/>
<path d="M52.752 13.964C53.5587 14.3101 54.3763 14.695 55.1961 15.1198V15.2959C55.1961 15.6347 54.9215 15.9094 54.5827 15.9094H53.3559C53.0171 15.9094 52.7425 15.6347 52.7425 15.2959V14.0691C52.7425 14.0332 52.7461 13.9982 52.752 13.964Z" fill="white"/>
<path d="M45.9948 13.4557C46.3336 13.4557 46.6082 13.7303 46.6082 14.0691V15.2959C46.6082 15.6347 46.3336 15.9094 45.9948 15.9094H45.0863V15.2687C45.0863 14.5795 45.3126 13.9512 45.6869 13.4557H45.9948Z" fill="white"/>
<defs>
<linearGradient id="paint0_linear_1627_9041" x1="45.0863" y1="11.6568" x2="75.2628" y2="60.1326" gradientUnits="userSpaceOnUse">
<stop stop-color="#FF20D6"/>
<stop offset="0.399038" stop-color="#FFE500"/>
<stop offset="0.600962" stop-color="#FFE500"/>
<stop offset="1" stop-color="#10D7FF"/>
</linearGradient>
</defs>
</svg>
