<svg width="40" height="9" viewBox="0 0 40 9" fill="none" xmlns="http://www.w3.org/2000/svg">
<path d="M15.31 0.728815C17.4806 0.728815 19.249 2.50519 19.249 4.69242C19.249 6.87975 17.4806 8.65603 15.31 8.65603C13.1396 8.65603 11.3711 6.87975 11.3711 4.69242C11.3711 2.50519 13.1396 0.728819 15.31 0.728815ZM36.061 0.728815C38.2316 0.728815 40 2.50519 40 4.69242C40 4.90195 39.9744 5.09477 39.9408 5.29599H34.0501C34.1339 5.73983 34.3182 6.09993 34.5778 6.33448C34.9967 6.72841 35.5751 6.91338 36.5305 6.91339C37.2846 6.91339 38.2312 6.44389 38.6084 6.10863L39.497 7.299C38.4163 8.49699 36.9167 8.65596 36.3382 8.65603C35.1482 8.65603 34.259 8.30472 33.6221 7.80197C32.7088 7.07286 32.1221 5.97461 32.1221 4.69242C32.1221 2.50524 33.8907 0.728896 36.061 0.728815ZM0 0.796864C1.53359 0.796864 3.64557 0.712509 5.15397 0.754456C7.18183 0.804746 7.9449 1.68482 7.9785 3.87189C8.00351 5.09781 7.97874 8.6064 7.9785 8.64025H5.78219C5.78219 5.54853 5.7989 5.03706 5.78219 4.06519C5.75707 3.21044 5.51423 2.79942 4.85219 2.72393C4.14823 2.64014 2.19532 2.70717 2.19532 2.70717V8.64025H0V0.796864ZM15.31 2.60559C14.1704 2.60559 13.2488 3.53636 13.2488 4.68453C13.2491 5.83241 14.1705 6.76249 15.31 6.76249C16.4497 6.76249 17.371 5.84082 17.3712 4.68453C17.3712 3.53636 16.4498 2.60559 15.31 2.60559ZM26.7078 0V2.2042H28.8202V4.13127H26.7078V6.41929H24.6554V4.13127H22.543V2.2042H24.6554V0H26.7078ZM36.0532 2.3541C34.9386 2.3541 34.2848 3.04148 34.0669 3.9715H38.0305C37.8294 3.09178 37.2177 2.35422 36.0532 2.3541Z" fill="#27272A"/>
</svg>
