<?xml version="1.0" encoding="UTF-8"?>
<svg id="_レイヤー_1" data-name="レイヤー_1" xmlns="http://www.w3.org/2000/svg" xmlns:xlink="http://www.w3.org/1999/xlink" version="1.1" viewBox="0 0 31.9 32">
  <!-- Generator: Adobe Illustrator 29.5.0, SVG Export Plug-In . SVG Version: 2.1.0 Build 137)  -->
  <defs>
    <style>
      .st0 {
        fill: #fff;
      }

      .st1 {
        fill: url(#_名称未設定グラデーション_87);
      }
    </style>
    <linearGradient id="_名称未設定グラデーション_87" data-name="名称未設定グラデーション 87" x1="32.8" y1="18.1" x2="-1" y2="14" gradientTransform="translate(7.5 -5) rotate(23)" gradientUnits="userSpaceOnUse">
      <stop offset="0" stop-color="#46eacc"/>
      <stop offset=".8" stop-color="#b89bf5"/>
    </linearGradient>
  </defs>
  <path class="st1" d="M31.7,22.7c-9.3,1.6-14.7,3.8-22.5,9.1C7.6,22.5,5.4,17.1.1,9.3,9.4,7.7,14.9,5.5,22.6.2c1.6,9.3,3.8,14.7,9.1,22.5Z"/>
  <path class="st0" d="M17.9,13.6l1.5-4.2h1.5l-1.5,4.2h1.7v.5h-1.9l-1.3,3.6h1.7v.5h-1.9l-1.5,4.3h-1.5l1.5-4.3h-2.3l-1.5,4.3h-1.5l1.5-4.3h-1.7v-.5h1.9l1.3-3.6h-1.7v-.5h1.9l1.5-4.2h1.5l-1.5,4.2h2.3ZM14.2,17.7h2.2l1.3-3.6h-2.2l-1.3,3.6Z"/>
</svg>